inDegrees=yes
name=ik_lifting_orientations
DataType=double
version=3
OpenSimVersion=4.5-2024-01-10-34fd6af
endheader
time	pelvis_tilt	pelvis_list	pelvis_rotation	pelvis_tx	pelvis_ty	pelvis_tz	hip_flexion_r	hip_adduction_r	hip_rotation_r	knee_angle_r	knee_angle_r_beta	ankle_angle_r	subtalar_angle_r	mtp_angle_r	hip_flexion_l	hip_adduction_l	hip_rotation_l	knee_angle_l	knee_angle_l_beta	ankle_angle_l	subtalar_angle_l	mtp_angle_l	lumbar_extension	lumbar_bending	lumbar_rotation	arm_flex_r	arm_add_r	arm_rot_r	elbow_flex_r	pro_sup_r	wrist_flex_r	wrist_dev_r	arm_flex_l	arm_add_l	arm_rot_l	elbow_flex_l	pro_sup_l	wrist_flex_l	wrist_dev_l
1.28	2.617683266099172	20.42134330853569	-97.70098686970866	0	0.9399999998679526	0	45.11214443917512	-10.55415480863919	0	60.13854377163225	1.049615596169712	-5.091061792118659	0	0	45.11214443917512	-10.55415480863919	0	60.13854377163225	1.049615596169712	-5.091061792118659	0	0	-12.61807676717959	-6.814998751434094	9.907516658934354	43.40675743927279	-37.17603689881685	-9.907018462294014	47.05801650401657	2.375564783274499	0	0	0	-10.00301225473714	0	87.67479012639924	2.375564783274499	0	0
1.29	2.337854700982856	19.45619492729035	-97.52523029618246	0	0.9399999998679526	0	45.11141946196191	-10.54526445231247	0	60.13767165031823	1.049600374781305	-5.089298996755313	0	0	45.11141946196191	-10.54526445231247	0	60.13767165031823	1.049600374781305	-5.089298996755313	0	0	-12.02155469468073	-5.938132386761351	10.06820222830795	43.94912367889101	-38.18002081854126	-6.802625931512338	47.51906415441501	2.363883737481497	0	0	0	-10.02242974157547	0	87.68622255318951	2.363883737481497	0	0
1.3	1.788217862831123	17.45256664660288	-97.01180078050479	0	0.9399999998679526	0	45.11070056325609	-10.5363799393907	0	60.13680663463953	1.04958527740963	-5.08753062344366	0	0	45.11070056325609	-10.5363799393907	0	60.13680663463953	1.04958527740963	-5.08753062344366	0	0	-13.26568248879725	-5.251669622627245	9.939552057458645	45.63585807344806	-42.42519958844079	-1.166624793382424	41.97116562654613	2.352305919130246	0	0	0	-10.04167369693998	0	87.69755394957861	2.352305919130246	0	0
1.31	1.452134832678138	16.34956802112837	-96.90368110842725	0	0.9399999998679526	0	45.10943089441999	-10.52041139055113	0	60.13532007711215	1.049559332086257	-5.084355691500339	0	0	45.10943089441999	-10.52041139055113	0	60.13532007711215	1.049559332086257	-5.084355691500339	0	0	-13.25908315048351	-4.99836891296279	10.35310221553984	47.98194119153318	-47.50674542428363	5.7485523269353	49.03217026864868	2.332011310500156	0	0	0	-10.0751952678214	0	87.71741658646096	2.332011310500156	0	0
1.32	1.143508248290686	15.33162904657607	-96.87790372716248	0	0.9399999998679526	0	45.10866507587021	-10.51130947269307	0	60.13439583046042	1.049543200939084	-5.082569001064514	0	0	45.10866507587021	-10.51130947269307	0	60.13439583046042	1.049543200939084	-5.082569001064514	0	0	-13.17961096170731	-4.708609294471263	10.73025212189158	50.64390180903145	-50.30727487714145	11.12795588474697	48.53745548981615	2.319602492105763	0	0	0	-10.09590334025584	0	87.72956130549733	2.319602492105763	0	0
1.33	-1.658702199792167	14.53782325063367	-93.86563039318789	0	0.9399999998679526	0	45.10754748519194	-10.49862436398531	0	60.13303200238373	1.049519397648715	-5.080116327986577	0	0	45.10754748519194	-10.49862436398531	0	60.13303200238373	1.049519397648715	-5.080116327986577	0	0	-13.18075668352649	-1.641324868957277	9.410392659079783	51.55493823538083	-50.76684841355699	12.86341042498302	48.86140825481533	2.301349702534213	0	0	0	-10.12652964768637	0	87.74742563517941	2.301349702534213	0	0
1.34	-1.403174958051722	13.38620276387426	-94.52273645871583	0	0.9399999998679526	0	45.10672994057621	-10.48924545493191	0	60.13203983892872	1.049502081129707	-5.078295947179181	0	0	45.10672994057621	-10.48924545493191	0	60.13203983892872	1.049502081129707	-5.078295947179181	0	0	-13.04084034501604	-2.002726240253654	10.23788562598285	51.4803869718322	-50.32156648351462	12.57059565247929	53.74655866385259	2.28801875863618	0	0	0	-10.14887393718255	0	87.76047286460809	2.28801875863618	0	0
1.35	-1.372535850135758	12.05371164112235	-94.83162891495358	0	0.9399999998679526	0	45.10609139384141	-10.4819341935327	0	60.13126850036009	1.049488618732037	-5.076878957682197	0	0	45.10609139384141	-10.4819341935327	0	60.13126850036009	1.049488618732037	-5.076878957682197	0	0	-11.97178427431574	-1.994791561803472	11.36001245302854	49.5056909298983	-49.1278247230663	10.5127464260295	55.80457330440685	2.277608582553598	0	0	0	-10.16631796755322	0	87.7706614867959	2.277608582553598	0	0
1.36	-1.49729861678358	10.54739815043367	-94.84881140779801	0	0.9399999998679526	0	45.10563075391265	-10.47669192600518	0	60.13071410616792	1.049478942728029	-5.075865978465436	0	0	45.10563075391265	-10.47669192600518	0	60.13071410616792	1.049478942728029	-5.075865978465436	0	0	-12.40160242729749	-1.807733106850054	11.74853177164025	49.446379667104	-48.61397593276536	9.27338119311827	57.9130993540459	2.270095939898144	0	0	0	-10.17890778928546	0	87.77801424229642	2.270095939898144	0	0
1.37	-1.513238402905442	9.314092892577591	-95.06640188468319	0	0.9399999998679526	0	45.104855733876	-10.4679523181815	0	60.12977721721991	1.049462590931161	-5.074181155373156	0	0	45.104855733876	-10.4679523181815	0	60.12977721721991	1.049462590931161	-5.074181155373156	0	0	-10.43021875118825	-1.270476908068292	12.88004170503673	46.78227894994893	-50.35323611430973	8.215186717265917	64.2074684045609	2.257429255111049	0	0	0	-10.20016867382565	0	87.79041135311473	2.257429255111049	0	0
1.38	-1.4353016997756	8.169726437217205	-95.37117847476186	0	0.9399999998679526	0	45.10384376986013	-10.45655283209134	0	60.12856292343992	1.049441397506614	-5.071988464072647	0	0	45.10384376986013	-10.45655283209134	0	60.12856292343992	1.049441397506614	-5.071988464072647	0	0	-10.37997200131127	-1.31190112054967	13.65865135962766	46.44189650311654	-52.50123154935104	7.428931370593867	72.47626638711561	2.240906344648374	0	0	0	-10.22787561902338	0	87.80658261872534	2.240906344648374	0	0
1.39	-1.376424777336971	7.09468276645924	-95.69039732165355	0	0.9399999998679526	0	45.10285787629649	-10.44550923922138	0	60.12738477758548	1.049420834982385	-5.069870145652079	0	0	45.10285787629649	-10.44550923922138	0	60.12738477758548	1.049420834982385	-5.069870145652079	0	0	-10.40440729689042	-1.269526041119033	14.47889975534449	45.94328902139283	-54.2056624838999	5.593498307880626	81.96829085249048	2.224802968820693	0	0	0	-10.25488204343718	0	87.82234327910454	2.224802968820693	0	0
1.4	-1.200205939533577	6.061648608261349	-96.23387125123821	0	0.9399999998679526	0	45.10237157410806	-10.44001657492392	0	60.12681056040306	1.04941081300193	-5.068815525818544	0	0	45.10237157410806	-10.44001657492392	0	60.12681056040306	1.04941081300193	-5.068815525818544	0	0	-10.50655517784246	-1.332615521317682	15.36995477166673	45.96400375769463	-54.37153574294025	4.806321826918662	85.04633758459822	2.216881108203249	0	0	0	-10.26813853850144	0	87.83009654234669	2.216881108203249	0	0
1.41	-0.8224460761100305	5.000406167455439	-97.48919845037491	0	0.9399999998679526	0	45.10189508372921	-10.43467650791255	0	60.12624766747508	1.049400988667001	-5.067793066995502	0	0	45.10189508372921	-10.43467650791255	0	60.12624766747508	1.049400988667001	-5.067793066995502	0	0	-10.40100006017814	-1.751062080596892	16.90177833861314	45.66117941616145	-54.19894024864709	2.9639496467314	89.38238004534479	2.209109549692136	0	0	0	-10.28115411037911	0	87.83770270345475	2.209109549692136	0	0
1.42	-0.3788784185467819	3.914775805941446	-98.89982455795365	0	0.9399999998679526	0	45.10146170127327	-10.42984498503998	0	60.12573629538582	1.04939206354034	-5.066870010577948	0	0	45.10146170127327	-10.42984498503998	0	60.12573629538582	1.04939206354034	-5.066870010577948	0	0	-10.2272228264112	-2.176514901259567	18.77948541204336	45.57882019601089	-53.75010677250061	1.225986643859242	91.82354555770472	2.202036750299727	0	0	0	-10.29300351771856	0	87.84462497722633	2.202036750299727	0	0
1.43	-0.06516974328282192	2.92505571935265	-99.20496308243713	0	0.9399999998679526	0	45.1010613131302	-10.42546664533956	0	60.12526078658607	1.049383764346163	-5.066038330061215	0	0	45.1010613131302	-10.42546664533956	0	60.12526078658607	1.049383764346163	-5.066038330061215	0	0	-10.21619289334811	-2.300522726114395	19.49259336189195	46.32721101020531	-53.26792306127801	0.08400136047749768	93.75065382900591	2.195477699557475	0	0	0	-10.30402197942792	0	87.85104443900244	2.195477699557475	0	0
1.44	0.04122217139686655	2.137959080579245	-99.37508247453205	0	0.9399999998679526	0	45.10067288239967	-10.42126525714688	0	60.1247980988795	1.049375688922275	-5.065242953134792	0	0	45.10067288239967	-10.42126525714688	0	60.1247980988795	1.049375688922275	-5.065242953134792	0	0	-10.09377697441137	-2.184800157983203	20.25856298443871	47.50095508023108	-52.93355332545776	-0.6387767996310444	96.4983514868008	2.189101352930804	0	0	0	-10.31474924226814	0	87.85728508649758	2.189101352930804	0	0
1.45	0.004147283281929541	1.513041967732499	-99.36628109910114	0	0.9399999998679526	0	45.10031630057404	-10.41753179713225	0	60.12436745544932	1.049368172776516	-5.064542576182772	0	0	45.10031630057404	-10.41753179713225	0	60.12436745544932	1.049368172776516	-5.064542576182772	0	0	-9.893599214222084	-1.907626702975015	20.93933024762874	48.77692193050304	-52.66339806405774	-1.164102662481007	99.31871068403758	2.183208440273645	0	0	0	-10.32471165628227	0	87.86305259282348	2.183208440273645	0	0
1.46	0.02625504036512715	0.820642601890312	-99.44634951929346	0	0.9399999998679526	0	45.0999999486783	-10.41430217602457	0	60.12398169070189	1.049361439911535	-5.063941154212793	0	0	45.0999999486783	-10.41430217602457	0	60.12398169070189	1.049361439911535	-5.063941154212793	0	0	-9.535724599568793	-1.723229248930053	21.89804298213848	49.99460710899965	-52.39105884847291	-1.379063521799532	100.9891469163303	2.177954132219966	0	0	0	-10.33362643900719	0	87.86819508756921	2.177954132219966	0	0
1.47	0.05154493288112693	0.1027244645631159	-99.40397424084954	0	0.9399999998679526	0	45.09934154637136	-10.40746583291471	0	60.12318548566337	1.049347543512092	-5.062662058826489	0	0	45.09934154637136	-10.40746583291471	0	60.12318548566337	1.049347543512092	-5.062662058826489	0	0	-9.205513148742329	-1.554611996380902	22.60558765246705	55.80538888416165	-50.77722607391716	3.337788769709779	99.95989532505205	2.167055906456819	0	0	0	-10.35207170716471	0	87.87886139169456	2.167055906456819	0	0
1.48	0.220845777617545	-0.5533848245056419	-99.25971258539047	0	0.9399999998679526	0	45.09893781945058	-10.40321201416697	0	60.12270426200087	1.049339144574743	-5.061864185006543	0	0	45.09893781945058	-10.40321201416697	0	60.12270426200087	1.049339144574743	-5.061864185006543	0	0	-8.851978097406546	-1.580166174328512	23.08980806634271	57.70226568602511	-49.55468942792684	4.607062031263424	102.9675355517873	2.16040071241233	0	0	0	-10.36329919127274	0	87.88537495548162	2.16040071241233	0	0
1.49	0.6827898959304473	-1.493565696859835	-98.9684658041906	0	0.9399999998679526	0	45.09833829417683	-10.39706909145948	0	60.12198039293189	1.049326510676136	-5.060720691391097	0	0	45.09833829417683	-10.39706909145948	0	60.12198039293189	1.049326510676136	-5.060720691391097	0	0	-8.868559529213842	-1.949490085403034	23.87615480271471	60.97400307786977	-47.25848141050086	6.28030146248931	105.3915325132101	2.150458717969363	0	0	0	-10.3801454387148	0	87.89510537950689	2.150458717969363	0	0
1.5	1.058900584510233	-1.891162737366924	-98.82976404311815	0	0.9399999998679526	0	45.0979991346198	-10.39350949975733	0	60.12157846413388	1.049319495695252	-5.060054727360308	0	0	45.0979991346198	-10.39350949975733	0	60.12157846413388	1.049319495695252	-5.060054727360308	0	0	-8.654706026856262	-2.191916738835925	25.27603879858912	62.62593140389289	-46.98369027764927	7.079415828269078	105.304713295773	2.144868630822617	0	0	0	-10.38957322499397	0	87.90057650303437	2.144868630822617	0	0
1.51	1.562278719117455	-2.597075726742015	-98.46079725955759	0	0.9399999998679526	0	45.09737824539624	-10.38725570262512	0	60.12082693853334	1.049306379099109	-5.058897200893192	0	0	45.09737824539624	-10.38725570262512	0	60.12082693853334	1.049306379099109	-5.058897200893192	0	0	-8.87725282458976	-2.576316354982887	26.42639590942248	63.98216538360705	-45.84534666001338	6.535176054020106	112.1419205227491	2.134541544814525	0	0	0	-10.40710804977925	0	87.91068382708259	2.134541544814525	0	0
